<svg width="24" height="24" viewBox="0 0 24 24" fill="none" xmlns="http://www.w3.org/2000/svg">
<g clip-path="url(#clip0_2344_25268)">
<path d="M20.317 4.65606C18.7873 3.95418 17.147 3.43706 15.4319 3.14089C15.4007 3.13517 15.3695 3.14946 15.3534 3.17803C15.1424 3.55324 14.9087 4.04274 14.7451 4.42749C12.9004 4.15132 11.0652 4.15132 9.25832 4.42749C9.09465 4.03419 8.85248 3.55324 8.64057 3.17803C8.62449 3.15041 8.59328 3.13613 8.56205 3.14089C6.84791 3.43612 5.20756 3.95323 3.67693 4.65606C3.66368 4.66177 3.65233 4.67131 3.64479 4.68368C0.533392 9.33204 -0.31895 13.8661 0.0991801 18.344C0.101072 18.3659 0.11337 18.3869 0.130398 18.4002C2.18321 19.9078 4.17171 20.823 6.12328 21.4296C6.15451 21.4391 6.18761 21.4277 6.20748 21.402C6.66913 20.7716 7.08064 20.1068 7.43348 19.4078C7.4543 19.3668 7.43442 19.3183 7.39186 19.3021C6.73913 19.0545 6.1176 18.7526 5.51973 18.4098C5.47244 18.3821 5.46865 18.3145 5.51216 18.2821C5.63797 18.1878 5.76382 18.0897 5.88396 17.9907C5.90569 17.9726 5.93598 17.9688 5.96153 17.9802C9.88928 19.7735 14.1415 19.7735 18.023 17.9802C18.0485 17.9679 18.0788 17.9717 18.1015 17.9898C18.2216 18.0888 18.3475 18.1878 18.4742 18.2821C18.5177 18.3145 18.5149 18.3821 18.4676 18.4098C17.8697 18.7592 17.2482 19.0545 16.5945 19.3011C16.552 19.3173 16.533 19.3668 16.5538 19.4078C16.9143 20.1058 17.3258 20.7706 17.7789 21.401C17.7978 21.4277 17.8319 21.4391 17.8631 21.4296C19.8241 20.823 21.8126 19.9078 23.8654 18.4002C23.8834 18.3869 23.8948 18.3669 23.8967 18.345C24.3971 13.1681 23.0585 8.67113 20.3482 4.68463C20.3416 4.67131 20.3303 4.66177 20.317 4.65606ZM8.02002 15.6175C6.8375 15.6175 5.86313 14.5318 5.86313 13.1985C5.86313 11.8653 6.8186 10.7796 8.02002 10.7796C9.23087 10.7796 10.1958 11.8748 10.1769 13.1985C10.1769 14.5318 9.22141 15.6175 8.02002 15.6175ZM15.9947 15.6175C14.8123 15.6175 13.8379 14.5318 13.8379 13.1985C13.8379 11.8653 14.7933 10.7796 15.9947 10.7796C17.2056 10.7796 18.1705 11.8748 18.1516 13.1985C18.1516 14.5318 17.2056 15.6175 15.9947 15.6175Z" fill="white"/>
</g>
<defs>
<clipPath id="clip0_2344_25268">
<rect width="24" height="18.5915" fill="white" transform="translate(0 3)"/>
</clipPath>
</defs>
</svg>
