<svg viewBox="0 0 34 33" fill="none" xmlns="http://www.w3.org/2000/svg">
<path d="M27.6427 10.9589C27.66 11.2006 27.66 11.4423 27.66 11.6839C27.66 19.0544 22.0501 27.547 11.7969 27.547C8.63811 27.547 5.70372 26.6321 3.23535 25.0442C3.68416 25.0959 4.11565 25.1132 4.58172 25.1132C7.18813 25.1132 9.58747 24.2329 11.5035 22.7311C9.05238 22.6793 6.99828 21.0741 6.29056 18.8646C6.63582 18.9164 6.98102 18.9509 7.34354 18.9509C7.8441 18.9509 8.34471 18.8818 8.81073 18.7611C6.25608 18.2432 4.34002 15.9992 4.34002 13.2892V13.2202C5.08223 13.6345 5.94536 13.8934 6.86014 13.9279C5.35841 12.9267 4.37456 11.2179 4.37456 9.28459C4.37456 8.24894 4.65069 7.29957 5.13403 6.47102C7.87858 9.85422 12.004 12.0636 16.63 12.3053C16.5437 11.891 16.4919 11.4596 16.4919 11.028C16.4919 7.95549 18.9775 5.45264 22.0673 5.45264C23.6726 5.45264 25.1225 6.12582 26.1409 7.21328C27.401 6.97164 28.6092 6.50556 29.6795 5.86691C29.2652 7.16153 28.3849 8.24899 27.2284 8.93939C28.3504 8.81862 29.4378 8.50785 30.439 8.07636C29.6796 9.18103 28.7302 10.1649 27.6427 10.9589Z" fill="white"/>
</svg>
